PathFileType	3	(X/Y/Z)	random_1__view2_aligned.trc
DataRate	CameraRate	NumFrames	NumMarkers	Units	OrigDataRate	OrigDataStartFrame	OrigNumFrames
100.0	100.0	6	19	mm	100.0	1314	1930
Frame#	Time	pelvis			neck			head			hip_left			hip_right			knee_left			knee_right			ankle_left			ankle_right			heel_left			heel_right			toe_left			toe_right			shoulder_left			shoulder_right			elbow_left			elbow_right			wrist_left			wrist_right			
		X1	Y1	Z1	X2	Y2	Z2	X3	Y3	Z3	X4	Y4	Z4	X5	Y5	Z5	X6	Y6	Z6	X7	Y7	Z7	X8	Y8	Z8	X9	Y9	Z9	X10	Y10	Z10	X11	Y11	Z11	X12	Y12	Z12	X13	Y13	Z13	X14	Y14	Z14	X15	Y15	Z15	X16	Y16	Z16	X17	Y17	Z17	X18	Y18	Z18	X19	Y19	Z19	
1314	13.13000	136.951769	937.560067	80.131420	126.125621	1508.875780	94.499355	219.730659	1647.854531	76.667551	148.840432	937.011325	4.484179	125.063103	938.108785	155.778666	226.613194	504.330863	10.290198	221.195576	521.989270	257.054018	148.798253	104.331463	4.146726	99.744010	137.803293	302.776659	113.156203	57.826386	0.184032	59.525122	95.223879	303.223982	325.493570	47.401619	51.326322	273.164431	63.630949	317.785512	99.498248	1496.459831	-79.210969	77.873702	1447.646130	266.248974	134.428859	1342.880935	-304.888925	107.699768	1260.107316	465.224865	351.188650	1298.525600	-317.060766	338.653364	1214.841225	529.909720
1315	13.14000	137.049285	937.550065	82.700154	125.645167	1509.377384	97.013776	217.868481	1649.366797	77.917962	148.406868	937.025957	7.060244	125.691699	938.074155	158.340069	226.142858	504.414514	11.206168	220.344227	521.563433	259.007797	147.850505	104.616910	4.022822	96.892094	137.887070	304.775717	112.140038	58.172999	0.029672	56.457391	95.446020	305.122022	324.460990	47.354664	50.758070	270.211503	63.318780	320.607150	97.197778	1496.655262	-75.898785	78.644230	1448.390725	268.715920	131.156897	1348.533026	-304.631054	109.427479	1265.398940	471.735149	346.513145	1307.541792	-326.572186	338.652779	1220.530944	543.190772
1316	13.15000	137.146801	937.540062	85.268888	125.164713	1509.878989	99.528197	216.006304	1650.879063	79.168372	147.973305	937.040588	9.636309	126.320295	938.039525	160.901472	225.672521	504.498164	12.122137	219.492879	521.137596	260.961576	146.902758	104.902357	3.898918	94.040178	137.970847	306.774776	111.123873	58.519612	-0.124688	53.389660	95.668161	307.020062	323.428410	47.307710	50.189818	267.258575	63.006612	323.428788	94.897308	1496.850692	-72.586600	79.414758	1449.135319	271.182865	127.884935	1354.185116	-304.373184	111.155190	1270.690564	478.245432	341.837641	1316.557984	-336.083606	338.652194	1226.220662	556.471823
1317	13.16000	137.244317	937.530060	87.837621	124.684259	1510.380593	102.042619	214.144127	1652.391329	80.418782	147.539741	937.055219	12.212374	126.948891	938.004894	163.462876	225.202185	504.581815	13.038107	218.641531	520.711759	262.915354	145.955010	105.187804	3.775014	91.188262	138.054624	308.773835	110.107709	58.866225	-0.279048	50.321929	95.890303	308.918102	322.395830	47.260755	49.621566	264.305647	62.694444	326.250426	92.596837	1497.046123	-69.274415	80.185286	1449.879913	273.649810	124.612974	1359.837206	-304.115313	112.882902	1275.982189	484.755716	337.162136	1325.574176	-345.595026	338.651608	1231.910381	569.752874
1318	13.17000	137.341833	937.520057	90.406355	124.203806	1510.882197	104.557040	212.281949	1653.903595	81.669192	147.106178	937.069850	14.788439	127.577486	937.970264	166.024279	224.731849	504.665466	13.954076	217.790182	520.285923	264.869133	145.007263	105.473251	3.651109	88.336346	138.138401	310.772894	109.091544	59.212838	-0.433408	47.254198	96.112444	310.816141	321.363251	47.213800	49.053314	261.352719	62.382275	329.072064	90.296367	1497.241554	-65.962231	80.955814	1450.624507	276.116755	121.341012	1365.489297	-303.857442	114.610613	1281.273813	491.265999	332.486632	1334.590368	-355.106446	338.651023	1237.600100	583.033926
1319	13.18000	136.798272	937.589133	93.628117	123.572883	1511.372477	107.633500	210.573811	1654.874670	83.413555	145.849345	937.103372	18.069448	127.747197	938.074888	169.186792	223.121129	504.915710	15.027733	216.454054	519.975545	266.741164	142.954994	105.896070	3.435805	86.203720	137.975977	312.749410	106.950480	59.697012	-0.660999	45.024644	95.984947	312.833707	319.329184	47.231660	47.885429	259.223640	62.179652	330.916116	87.812298	1497.790145	-61.787907	81.598733	1451.531102	278.943709	117.674026	1371.794588	-301.832007	116.713283	1286.869337	497.118960	324.896524	1344.454612	-362.412743	338.017554	1245.210543	595.811337
